<svg aria-label="Atlassian Trello" fill="#ffffff" height="105" role="img" viewBox="0 0 312 105" width="312" xmlns="http://www.w3.org/2000/svg" xmlns:xlink="http://www.w3.org/1999/xlink" class="Logo-sc-1anfgcw-0 gguOta"><defs><linearGradient id="trello-logo-gradient-white" x1="49.992%" x2="49.992%" y1="100%" y2=".016%"><stop offset="0%" stop-color="#ffffff" stop-opacity=".5"></stop><stop offset="15%" stop-color="#ffffff" stop-opacity=".65"></stop><stop offset="30%" stop-color="#ffffff" stop-opacity=".78"></stop><stop offset="46%" stop-color="#ffffff" stop-opacity=".88"></stop><stop offset="62%" stop-color="#ffffff" stop-opacity=".95"></stop><stop offset="80%" stop-color="#ffffff" stop-opacity=".99"></stop><stop offset="100%" stop-color="#ffffff"></stop></linearGradient></defs><path d="M42.6 5.2 42.6 17.3 28.3 17.3 28.3 63 14.5 63 14.5 17.2.2 17.2.2 5.2z" transform="translate(87 40)"></path><path d="M60.2,63 L47.5,63 L47.5,18 L60.2,18 L60.2,26.6 C62.6,20.5 66.5,16.9 73.4,17.4 L73.4,30.7 C64.4,30 60.2,32.2 60.2,39.4 L60.2,63 Z" transform="translate(87 40)"></path><path d="M143,63.4 C134.6,63.4 129.4,59.4 129.4,49.9 L129.4,0.6 L142.2,0.6 L142.2,48.1 C142.2,50.8 144,51.8 146.2,51.8 C146.8,51.8 147.5,51.8 148.1,51.7 L148.1,62.8 C146.4,63.2 144.7,63.4 143,63.4 L143,63.4 Z" transform="translate(87 40)"></path><path d="M169.8,63.4 C161.4,63.4 156.2,59.4 156.2,49.9 L156.2,0.6 L169,0.6 L169,48.1 C169,50.8 170.8,51.8 173,51.8 C173.6,51.8 174.3,51.8 174.9,51.7 L174.9,62.8 C173.2,63.2 171.5,63.4 169.8,63.4 L169.8,63.4 Z" transform="translate(87 40)"></path><path d="M181,40.5 C181,26.6 189,17.1 202.8,17.1 C216.6,17.1 224.4,26.6 224.4,40.5 C224.4,54.4 216.5,64.1 202.8,64.1 C189.1,64.1 181,54.3 181,40.5 Z M193.5,40.5 C193.5,47.3 196.3,52.6 202.8,52.6 C209.3,52.6 211.9,47.2 211.9,40.5 C211.9,33.8 209.1,28.5 202.8,28.5 C196.5,28.5 193.5,33.7 193.5,40.5 Z" transform="translate(87 40)"></path><path d="M90.6,44.6 C94.2,45 97.8,45.2 101.3,45.2 C111.1,45.2 119.3,42.6 119.3,33.1 C119.3,23.9 110.8,17 100.6,17 C86.9,17 78.1,27 78.1,40.8 C78.1,55.2 85.7,63.8 102.8,63.8 C107.9,63.9 112.9,63 117.7,61.2 L117.7,50.4 C113.3,51.8 108.3,53.2 103.3,53.2 C96.5,53.3 91.8,51 90.6,44.6 L90.6,44.6 Z M100.4,26.9 C104,26.9 106.9,29.3 106.9,32.7 C106.9,37 102.3,38.4 97.1,38.4 C94.9,38.4 92.6,38.2 90.4,37.9 C90.6,35.8 91.2,33.8 92.2,31.9 C93.8,28.8 97,26.9 100.4,26.9 Z" transform="translate(87 40)"></path><path fill="url(#trello-logo-gradient-white)" d="M55.3,40.6 L7.8,40.6 C3.7,40.6 0.4,43.9 0.4,48 L0.4,95.6 C0.4,99.7 3.7,103 7.8,103 L55.3,103 C59.4,103 62.7,99.7 62.7,95.6 L62.7,48 C62.7,43.9 59.4,40.6 55.3,40.6 Z M27.2,85.5 C27.2,86.9 26.1,88 24.7,88 L14.3,88 C12.9,88 11.8,86.9 11.8,85.5 L11.8,54.6 C11.8,53.2 12.9,52.1 14.3,52.1 L24.7,52.1 C26.1,52.1 27.2,53.2 27.2,54.6 L27.2,85.5 Z M51.2,71.3 C51.2,72.7 50.1,73.8 48.8,73.8 L38.3,73.8 C36.9,73.8 35.8,72.7 35.8,71.3 L35.8,54.6 C35.8,53.2 36.9,52.1 38.3,52.1 L48.7,52.1 C50.1,52.1 51.2,53.2 51.2,54.6 L51.2,71.3 Z"></path>
    </svg>